<svg version="1.1" id="Layer_1" xmlns="http://www.w3.org/2000/svg" xmlns:xlink="http://www.w3.org/1999/xlink" x="0" y="0" viewBox="0 0 26 26" xml:space="preserve"><defs><path id="SVGID_1_" d="M0 0h26v26H0z"/></defs><clipPath id="SVGID_2_"><use xlink:href="#SVGID_1_" overflow="visible"/></clipPath><g clip-path="url(#SVGID_2_)"><path d="M.1 14.9c.4 2.9 1.8 5.6 4 7.6 2.6 2.4 5.9 3.6 9.4 3.5 3-.1 5.8-1.2 8-3.1 2.2-1.9 3.7-4.5 4.3-7.3.1-.3-.1-.6-.4-.7-.3-.1-.6.1-.7.4-1.1 5.4-5.8 9.3-11.3 9.5-6.1.3-11.4-4.2-12.2-10.1l.8.6c.2.2.6.2.8-.1.2-.2.1-.6-.1-.8L.9 13c-.8 0-1 .2-.8 1.9zm25.8-3.8c-.4-2.9-1.8-5.6-4-7.6C19.4 1.1 16-.1 12.6 0c-3 .1-5.8 1.2-8 3.1C2.3 5 .8 7.6.2 10.4c-.1.3.1.6.4.6.3.1.6-.1.7-.4 1.1-5.4 5.8-9.3 11.3-9.5C18.7.9 24 5.4 24.8 11.3l-.8-.6c-.2-.2-.6-.2-.8.1-.2.2-.2.6.1.8l1.8 1.4c.8 0 1-.2.8-1.9z" fill-rule="evenodd" clip-rule="evenodd" fill="#30b9eb"/></g></svg>