<svg version="1.1" id="Layer_1" xmlns="http://www.w3.org/2000/svg" x="0" y="0" viewBox="0 0 22 22" xml:space="preserve"><linearGradient id="SVGID_1_" gradientUnits="userSpaceOnUse" x1="26.515" y1="13" x2="-5.09" y2="13" gradientTransform="matrix(1 0 0 -1 0 24)"><stop offset="0" stop-color="#37cbff"/><stop offset="1" stop-color="#18b4ff"/></linearGradient><path d="M18.6 9.9c-.4-.2-.9-.3-1.4-.3H4.8c-.5 0-.9.1-1.4.3-.6.3-1.1.7-1.5 1.3-.4.6-.6 1.2-.6 1.9v4.8c0 .2.1.4.2.5.1.1.3.2.5.2s.4-.1.5-.2c.1-.1.2-.3.2-.5v-.3c0-.1 0-.2.1-.2.1-.1.2-.1.2-.1h15.8c.1 0 .2 0 .2.1.1.1.1.2.1.2v.3c0 .2.1.4.2.5.1.1.3.2.5.2s.4-.1.5-.2c.1-.1.2-.3.2-.5v-4.8c0-.7-.2-1.3-.6-1.9-.2-.6-.7-1-1.3-1.3zm-2.4-6.5H5.8c-.6 0-1.3.3-1.7.7-.4.5-.7 1.1-.7 1.7V9l.1.1h.2c.3-.1.7-.2 1.1-.2h.3l.1-.1c0-.3.2-.6.4-.9.3-.2.6-.4.9-.4h2.4c.3 0 .7.1.9.4.3.2.4.5.4.9 0 0 0 .1.1.1h1.3l.1-.1c0-.3.2-.6.4-.9.3-.2.6-.4.9-.4h2.4c.3 0 .7.1.9.4.3.2.4.5.4.9 0 0 0 .1.1.1h.3c.4 0 .8.1 1.2.2h.2l.1-.1V5.8c0-.6-.3-1.3-.7-1.7-.5-.4-1.1-.7-1.7-.7z" fill="url(#SVGID_1_)"/></svg>