<svg version="1.1" id="Layer_1" xmlns="http://www.w3.org/2000/svg" xmlns:xlink="http://www.w3.org/1999/xlink" x="0" y="0" viewBox="0 0 22 22" xml:space="preserve"><defs><path id="SVGID_1_" d="M0 0h22v22H0z"/></defs><clipPath id="SVGID_2_"><use xlink:href="#SVGID_1_" overflow="visible"/></clipPath><g clip-path="url(#SVGID_2_)"><linearGradient id="SVGID_3_" gradientUnits="userSpaceOnUse" x1="19.795" y1="20.694" x2="1.048" y2="1.948" gradientTransform="matrix(1 0 0 -1 0 24)"><stop offset="0" stop-color="#ffc73e"/><stop offset="1" stop-color="#ff633c"/></linearGradient><path d="M10.8 1.6c-.1-.1-.3-.1-.4 0-1.3.7-2.1 2-2 3.5l.2 3.3-2.2.5v-.3c0-.3-.2-.5-.5-.5s-.5.2-.5.5v.6L2 10c-.2.1-.4.2-.4.5v1.9c0 .3.2.5.5.5h6.7l.4 4.4-1.6.7c-.2.1-.3.2-.3.4v1.9c0 .2.1.3.2.4.1.1.3.1.4.1l2.7-.9 2.7.9c.1 0 .3 0 .4-.1.1-.1.2-.2.2-.4v-1.9c0-.2-.1-.3-.3-.4l-1.6-.8.4-4.4h6.7c.3 0 .5-.2.5-.5v-1.9c0-.2-.1-.4-.4-.5L15.8 9v-.4c0-.3-.2-.5-.5-.5s-.5.2-.5.5v.3l-2.2-.5.2-3.3c.2-1.5-.6-2.9-2-3.5z" fill="url(#SVGID_3_)"/></g></svg>