<svg width="20" height="20" viewBox="0 0 20 20" fill="none" xmlns="http://www.w3.org/2000/svg">
<path d="M10 0.976562C6.39453 0.976562 3.47656 3.89297 3.47656 7.5C3.47656 11.1055 6.39453 14.0234 10 14.0234C13.6055 14.0234 16.5234 11.1055 16.5234 7.5C16.5234 3.89297 13.6055 0.976562 10 0.976562ZM15.0703 5.32422C15.2292 5.33065 15.3773 5.45067 15.482 5.65793C15.5867 5.86518 15.6396 6.14275 15.6289 6.42969C15.6179 6.71671 15.5442 6.9894 15.4241 7.18788C15.304 7.38637 15.1473 7.49441 14.9883 7.48828C14.8294 7.48185 14.6813 7.36183 14.5766 7.15457C14.4718 6.94732 14.419 6.66975 14.4297 6.38281C14.4407 6.09579 14.5144 5.8231 14.6345 5.62462C14.7546 5.42613 14.9113 5.31809 15.0703 5.32422ZM13.1406 6.33203C13.213 6.3331 13.28 6.35019 13.3398 6.38281C13.4262 6.4296 13.4961 6.50794 13.5456 6.61336C13.5951 6.71878 13.6232 6.84921 13.6282 6.9972C13.6333 7.1452 13.6153 7.30786 13.5752 7.4759C13.5351 7.64394 13.4737 7.81406 13.3945 7.97656C13.2351 8.30393 13.0132 8.58064 12.7775 8.7461C12.5417 8.91157 12.3113 8.9523 12.1367 8.85938C12.0498 8.81325 11.9793 8.73539 11.9293 8.63026C11.8793 8.52513 11.8508 8.39479 11.8453 8.24673C11.8399 8.09866 11.8577 7.93578 11.8976 7.76742C11.9376 7.59906 11.9989 7.42854 12.0781 7.26562C12.2097 6.9949 12.3848 6.75702 12.5767 6.5884C12.7686 6.41979 12.9667 6.32973 13.1406 6.33203ZM14.6602 8.48438C14.676 8.48344 14.6917 8.48344 14.707 8.48438C14.7483 8.48558 14.7875 8.49343 14.8242 8.50781C14.9708 8.5692 15.0679 8.73319 15.0943 8.96384C15.1206 9.19448 15.0741 9.47298 14.9648 9.73828C14.9106 9.87007 14.8425 9.99464 14.7644 10.1049C14.6864 10.2151 14.5999 10.3088 14.5099 10.3806C14.4199 10.4525 14.3282 10.501 14.2401 10.5235C14.1519 10.546 14.069 10.542 13.9961 10.5117C13.8495 10.4503 13.7524 10.2863 13.726 10.0557C13.6997 9.82505 13.7462 9.54655 13.8555 9.28125C13.9459 9.06219 14.0735 8.86566 14.2188 8.72174C14.3642 8.57783 14.5192 8.49445 14.6602 8.48438ZM11.25 9.65234C11.4795 9.65588 11.6529 9.73572 11.7422 9.87891C11.7939 9.96248 11.8155 10.0653 11.806 10.1814C11.7965 10.2975 11.7559 10.4247 11.6866 10.5556C11.6173 10.6866 11.5207 10.8188 11.4022 10.9446C11.2837 11.0704 11.1457 11.1875 10.9961 11.2891C10.6948 11.4939 10.3645 11.6238 10.0775 11.6501C9.79045 11.6765 9.57014 11.5972 9.46484 11.4297C9.41317 11.3461 9.39149 11.2433 9.40102 11.1272C9.41056 11.0111 9.45113 10.8839 9.52042 10.753C9.58971 10.622 9.68635 10.4898 9.80484 10.364C9.92332 10.2381 10.0613 10.1211 10.2109 10.0195C10.3819 9.90302 10.5642 9.8095 10.7441 9.74593C10.9239 9.68236 11.0969 9.65037 11.25 9.65234ZM12.7812 11.1055C12.7999 11.1047 12.8181 11.1047 12.8359 11.1055C12.9592 11.1096 13.0599 11.1499 13.1289 11.2227C13.1838 11.2794 13.2178 11.3551 13.229 11.4454C13.2402 11.5357 13.2285 11.6387 13.1943 11.7486C13.1602 11.8586 13.1045 11.9733 13.0302 12.0861C12.956 12.1989 12.8648 12.3077 12.7617 12.4062C12.6586 12.5047 12.5457 12.5909 12.4296 12.6599C12.3134 12.7289 12.1963 12.7793 12.0849 12.8084C11.9735 12.8374 11.87 12.8444 11.7804 12.829C11.6907 12.8137 11.6167 12.7762 11.5625 12.7188C11.5076 12.662 11.4736 12.5863 11.4624 12.496C11.4512 12.4058 11.463 12.3027 11.4971 12.1928C11.5312 12.0828 11.5869 11.9681 11.6612 11.8553C11.7354 11.7425 11.8267 11.6337 11.9297 11.5352C12.0613 11.4096 12.2083 11.3044 12.3572 11.2293C12.506 11.1542 12.6518 11.1116 12.7812 11.1055ZM7.55469 14.3008C8.75 16.1133 8.75 16.8359 8.75 19.2969H11.25C11.25 16.8359 11.25 16.1133 12.4453 14.3008C11.6836 14.5781 10.8594 14.7266 10 14.7266C9.14062 14.7266 8.31641 14.5781 7.55469 14.3008Z" fill="url(#paint0_linear_550_8541)"/>
<defs>
<linearGradient id="paint0_linear_550_8541" x1="6.99969" y1="3.28744" x2="11.4715" y2="18.1933" gradientUnits="userSpaceOnUse">
<stop stop-color="#FFC53D"/>
<stop offset="0.912643" stop-color="#CE950F"/>
</linearGradient>
</defs>
</svg>
